<svg version="1.1" id="Layer_1" xmlns="http://www.w3.org/2000/svg" xmlns:xlink="http://www.w3.org/1999/xlink" x="0px" y="0px"
	 width="100%" viewBox="0 0 1024 1024" enable-background="new 0 0 1024 1024" xml:space="preserve">
<path fill="#000000" opacity="1.000000" stroke="none" 
	d="
M798.678345,647.782593 
	C771.372253,663.397827 742.252625,666.839783 711.917236,663.232971 
	C706.538574,662.593445 704.036926,659.474854 704.322266,654.514282 
	C704.647156,648.865051 707.618469,645.601257 713.059814,645.752014 
	C719.704407,645.936035 726.313354,646.745056 732.987671,646.855469 
	C771.485779,647.492493 802.225586,631.732605 826.923767,602.932983 
	C844.257935,582.720215 853.516785,558.972107 857.632812,532.968811 
	C858.960144,524.583496 859.542969,516.150757 859.882812,507.653870 
	C860.082764,502.655487 856.836975,499.060699 856.502380,494.298309 
	C855.547546,480.706055 855.318176,467.036957 852.731018,453.574524 
	C848.856262,433.411377 840.196716,415.754425 825.887695,400.951355 
	C824.848083,399.875763 823.720398,398.874542 822.562073,397.926147 
	C815.012512,391.744476 815.072388,391.858185 806.813843,397.035858 
	C779.305969,414.281860 749.227417,424.412628 717.252625,429.354065 
	C688.813904,433.749023 661.222473,429.729309 634.018250,421.416931 
	C627.333984,419.374573 626.659119,419.831085 624.062805,426.290161 
	C615.946167,446.482361 612.376892,467.494751 612.255676,489.187042 
	C612.225525,494.586334 612.273315,499.679474 608.196106,504.575623 
	C605.408752,507.922852 607.100464,513.641968 607.469421,518.219299 
	C609.350281,541.552734 614.628601,563.900757 627.756348,583.778931 
	C630.418823,587.810364 632.980286,591.928040 635.922729,595.748413 
	C638.052002,598.512939 637.187988,600.129272 634.776306,601.872009 
	C630.144470,605.219177 626.446655,605.080261 622.294739,601.120850 
	C615.593750,594.730530 610.467224,587.166077 606.000183,579.112671 
	C605.221252,577.708374 604.961975,575.918152 603.110229,575.035645 
	C602.843079,575.410889 602.284668,575.878662 602.369568,576.122253 
	C604.907349,583.404419 605.503723,591.426697 610.854858,597.638306 
	C615.584717,603.128662 621.508545,606.614624 628.331055,608.725769 
	C630.873352,609.512451 633.478149,610.099915 636.011047,610.913330 
	C641.939270,612.817261 647.090515,614.170532 650.871704,606.585510 
	C653.360901,601.592224 659.526184,600.297424 664.849365,600.037354 
	C679.712036,599.311096 694.126587,605.740234 699.888367,623.205505 
	C704.695801,637.778198 698.357971,653.652588 685.050171,660.907532 
	C671.279907,668.414551 653.276245,665.048584 644.407959,653.237976 
	C643.220337,651.656250 642.115906,649.907654 641.445007,648.064453 
	C640.120178,644.425110 639.937134,640.626526 643.410583,638.071899 
	C647.052917,635.393066 650.749451,636.429199 653.833435,639.343811 
	C657.361694,642.678101 660.769348,646.033813 665.745605,647.224854 
	C671.865601,648.689697 677.452515,647.029175 680.921265,642.293701 
	C684.866577,636.907593 685.026367,631.159546 681.992371,625.355591 
	C679.138733,619.896790 673.216553,616.743286 667.545593,617.405518 
	C664.311218,617.783203 662.020142,619.495178 660.508972,622.355286 
	C659.343933,624.560547 658.395203,626.963318 656.841614,628.862061 
	C653.882019,632.479126 649.886475,634.591431 645.362549,632.335693 
	C636.928345,628.130310 627.587402,626.853760 618.901672,623.486877 
	C595.562683,614.439758 581.658569,594.591248 581.749023,569.602539 
	C581.764587,565.322632 580.622131,562.891968 576.654175,560.577698 
	C558.537659,550.011658 549.331482,533.889954 548.696838,512.931152 
	C548.480042,505.771759 548.674744,498.659973 550.624756,491.648041 
	C552.761841,483.963043 556.778259,477.600403 563.238953,473.007782 
	C566.064758,470.999054 567.035339,468.745239 566.702759,465.442169 
	C565.330872,451.816376 565.631653,438.244537 567.543579,424.648651 
	C569.153992,413.197021 571.921753,402.101257 576.739807,391.638733 
	C578.607117,387.583771 578.175537,384.839844 575.731262,381.225342 
	C569.064575,371.367004 564.199524,360.670837 562.197083,348.757111 
	C561.145447,342.500519 561.907715,336.431366 563.340332,330.478943 
	C564.823975,324.314392 570.306396,321.076599 576.976135,322.816101 
	C593.678467,327.172119 609.244019,322.971710 624.722717,317.395325 
	C640.268494,311.794830 654.245422,302.642700 669.869446,297.260834 
	C685.625549,291.833496 701.820801,288.300171 718.437134,286.588776 
	C741.530334,284.210297 764.222717,286.333191 786.758484,291.573090 
	C803.049316,295.360931 817.329895,302.792084 829.534363,314.155609 
	C837.227417,321.318604 844.507202,328.886383 850.027283,337.937195 
	C850.933594,339.423340 852.106079,340.481140 853.679565,341.196167 
	C871.874878,349.464539 883.356201,364.040375 890.800598,381.935699 
	C900.036865,404.138306 903.228394,427.314697 900.530273,451.308075 
	C899.992432,456.090424 899.687561,460.917328 898.837036,465.653198 
	C898.455933,467.775208 899.220459,468.744751 900.866638,469.590454 
	C914.209045,476.445312 918.102844,488.739166 919.241943,502.338959 
	C919.795654,508.950043 919.194275,515.598145 918.397278,522.247803 
	C916.153198,540.970337 897.299438,561.069092 881.765747,562.809387 
	C879.129089,563.104797 876.436340,563.480408 873.820862,563.245728 
	C870.050537,562.907410 868.256287,564.264343 866.925903,567.903564 
	C854.154663,602.839539 830.872681,628.901062 798.678345,647.782593 
M878.547668,484.804626 
	C875.021240,486.502960 876.254395,489.761658 876.480591,492.307037 
	C877.917175,508.473328 876.296936,524.471924 873.914368,540.398682 
	C873.323914,544.345825 874.623901,545.283508 877.948303,544.991394 
	C888.121399,544.097534 894.822327,538.364502 898.529175,529.239990 
	C902.819763,518.678528 903.517944,507.635284 901.203796,496.488953 
	C899.392395,487.764343 895.136658,484.340240 886.303101,484.157257 
	C883.987427,484.109283 881.664856,484.392761 878.547668,484.804626 
M572.503113,534.966248 
	C575.841125,540.010803 580.240234,543.657837 586.193298,545.163513 
	C591.299377,546.454895 593.126892,544.984680 592.661194,539.794556 
	C592.141602,534.003662 591.062439,528.286621 590.573669,522.471313 
	C589.636780,511.325531 589.674377,500.183014 589.775635,489.029541 
	C589.800842,486.252747 588.847473,484.723328 585.929932,484.279388 
	C576.624695,482.863464 569.405212,486.925964 567.417480,496.118652 
	C564.575073,509.263824 565.231873,522.261414 572.503113,534.966248 
z"/>
<path fill="#000000" opacity="1.000000" stroke="none" 
	d="
M494.665771,460.368805 
	C503.069519,469.988953 506.628296,480.930664 506.343842,493.272491 
	C506.190277,499.935272 506.158508,506.606598 506.297211,513.269409 
	C506.688202,532.050720 498.936401,546.451294 482.999481,556.260071 
	C479.485901,558.422607 479.175964,560.297607 480.829926,563.835266 
	C485.975159,574.840027 491.326965,585.738464 496.000275,596.982117 
	C507.790894,625.349426 496.294525,649.352234 477.423798,665.993164 
	C464.541992,677.352783 449.026855,682.121460 432.204559,683.723206 
	C415.499268,685.313965 399.315430,683.979797 383.919281,676.774719 
	C370.672485,670.575500 360.375610,661.112610 353.285889,648.373779 
	C351.197693,644.621704 349.083893,644.097534 345.296570,645.511292 
	C326.328186,652.591675 306.663330,655.379150 286.469543,654.301758 
	C278.488251,653.875916 270.589661,652.691040 262.925568,650.323853 
	C258.451111,648.941833 256.563995,645.265503 257.921417,640.962036 
	C260.178436,633.806458 263.159210,632.282715 270.442230,633.845093 
	C297.439636,639.637085 323.728119,637.231079 349.117645,626.339539 
	C370.999512,616.952576 389.737549,603.379211 403.144836,583.399048 
	C413.549774,567.893127 418.472015,550.056274 421.401489,532.013123 
	C424.220978,514.647644 424.118378,496.876587 424.711548,479.248016 
	C424.821228,475.987396 423.748322,474.644775 420.336700,474.087280 
	C379.891083,467.478119 352.900238,442.392120 331.848694,409.251984 
	C331.065857,408.019653 330.804565,406.405884 328.804443,405.548553 
	C325.182678,410.055542 321.704498,414.862183 317.744568,419.232269 
	C295.988800,443.241394 268.496613,457.354889 237.489334,465.260895 
	C220.602982,469.566467 203.311874,470.531616 186.001068,470.990753 
	C181.675766,471.105469 180.203308,472.505524 180.245499,476.853302 
	C180.429642,495.822479 179.758423,514.806335 183.052353,533.637512 
	C186.261002,551.980957 192.372101,569.006836 204.423172,583.530762 
	C204.923615,584.133911 205.267059,584.867371 206.048126,586.128723 
	C203.349258,586.665405 201.072906,586.914673 198.931946,587.591980 
	C195.790298,588.585815 192.801315,590.387573 192.649811,593.927185 
	C192.516022,597.052429 196.071762,597.066650 198.109116,598.227783 
	C201.599823,600.217224 205.459930,600.484558 208.297562,597.487305 
	C214.391113,591.050964 222.140671,591.768799 229.352402,592.972412 
	C256.573181,597.515564 261.347961,624.529175 250.224625,638.906921 
	C249.207535,640.221558 248.194260,641.671082 248.403030,643.446289 
	C249.171524,649.981689 245.368622,654.576843 241.512299,658.906494 
	C223.462891,679.171204 200.298615,685.988037 173.958664,683.989624 
	C152.616791,682.370422 134.336441,673.875916 119.840385,658.182861 
	C104.195679,641.246338 98.538628,621.721008 106.584084,599.232483 
	C111.076012,586.676758 115.975563,574.305542 122.169777,562.481750 
	C123.523865,559.896973 124.378113,557.747620 121.057419,555.819397 
	C103.496765,545.622375 97.126442,529.383179 96.805214,510.053833 
	C96.642197,500.244659 95.991676,490.375214 98.100266,480.680908 
	C101.645988,464.379395 111.767731,453.166382 126.252106,445.746155 
	C129.905609,443.874481 131.281952,441.473175 131.665955,437.685913 
	C135.693405,397.965149 152.626312,364.542572 180.985703,336.662384 
	C201.790573,316.209015 226.195541,301.683197 254.579865,295.390991 
	C300.221191,285.273254 344.677185,289.411316 386.457520,311.545929 
	C412.121307,325.142273 431.280670,345.865662 446.401550,370.374146 
	C458.161987,389.435822 466.222473,410.147583 468.664337,432.354401 
	C469.683319,441.621216 472.600067,446.668152 481.122803,449.747253 
	C486.411865,451.658112 490.624512,455.827271 494.665771,460.368805 
M235.015106,319.506470 
	C225.656570,324.257568 216.192047,328.858002 207.839905,335.305389 
	C173.777176,361.600159 153.013855,395.556793 148.446762,438.798523 
	C148.088348,442.191925 147.918243,445.358002 151.149750,447.787506 
	C152.590332,448.870575 153.202896,450.868469 153.194183,452.749146 
	C153.161758,459.743744 154.156174,466.683563 153.869507,473.709625 
	C152.809784,499.683807 152.967682,525.674744 153.465012,551.658875 
	C153.541275,555.643921 153.490570,559.278564 150.541534,562.322388 
	C149.123032,563.786560 149.267136,565.659485 149.488373,567.516113 
	C150.292892,574.267761 160.581009,584.308594 167.446121,584.926025 
	C170.003998,585.156128 173.082306,585.076965 173.898788,582.339172 
	C175.178268,578.049072 177.010101,573.702637 175.139130,568.934143 
	C170.380661,556.806274 166.411179,544.257507 165.127060,531.392639 
	C162.795441,508.033325 162.249969,484.519653 162.743774,461.021149 
	C162.876907,454.685822 166.961563,451.314941 173.268753,451.987427 
	C187.728210,453.529022 202.181274,453.745758 216.612808,451.758911 
	C256.205200,446.308167 288.600952,428.031036 313.822021,397.043610 
	C319.623047,389.916260 323.913177,381.762512 329.140106,374.251160 
	C333.018982,368.677032 338.401764,369.244263 341.748138,375.187042 
	C342.935730,377.296021 343.248260,379.553070 343.286957,381.921722 
	C343.333008,384.741333 343.269043,387.542603 343.933533,390.358398 
	C346.853912,402.733276 353.625458,412.920013 361.955505,422.174316 
	C365.708374,426.343567 369.598969,430.347687 375.584290,431.655945 
	C379.681030,432.551392 382.862976,435.283325 385.867798,438.383179 
	C388.755493,441.362213 392.471832,445.171448 396.408539,444.765656 
	C401.987244,444.190582 406.582306,446.343079 409.252563,449.598419 
	C415.204681,456.854675 422.760803,456.702728 430.530243,456.294678 
	C433.925629,456.116394 437.021606,455.815216 440.197754,457.418427 
	C444.128967,459.402771 447.372986,457.431732 448.890411,454.067352 
	C451.604034,448.050629 453.810516,441.856079 452.604736,434.860687 
	C444.850128,389.870758 422.282898,354.236145 384.754669,328.408295 
	C365.541016,315.184967 343.371887,309.669617 320.519989,306.682312 
	C291.064697,302.831848 262.760162,306.800354 235.015106,319.506470 
M477.622742,594.868408 
	C473.556732,585.220764 467.549927,576.479370 464.504517,566.330444 
	C463.719879,563.715637 461.215790,562.481689 458.303986,562.144714 
	C451.916382,561.405457 449.326416,558.513672 449.926697,552.175293 
	C451.690247,533.554565 450.461945,514.910034 450.577271,496.279358 
	C450.607269,491.429291 450.429688,486.452271 449.048370,481.782990 
	C442.205444,482.222168 441.700958,486.714020 441.310883,491.545349 
	C439.414398,515.035828 439.895508,538.755188 432.944092,561.736572 
	C430.873047,568.583435 433.893188,574.115540 440.759308,576.374451 
	C445.895203,578.064148 448.647919,581.725647 449.943054,586.681824 
	C452.171906,595.211060 451.433716,603.514160 447.748047,611.538025 
	C442.398254,623.184937 434.179596,633.137573 428.357544,644.565674 
	C425.615723,649.947571 423.632629,655.517639 421.456329,661.037781 
	C419.881500,665.032349 421.521027,666.649780 426.065674,666.791687 
	C430.909424,666.942810 435.689789,666.431885 440.472443,665.686157 
	C461.827637,662.356812 477.475891,648.116943 482.026672,627.280823 
	C484.419373,616.325745 481.773621,605.824036 477.622742,594.868408 
M134.869598,510.499725 
	C134.848938,497.025970 134.847626,483.552124 134.783783,470.078583 
	C134.775543,468.338379 135.308609,466.074127 132.954956,465.422668 
	C130.644119,464.783112 128.165497,463.649353 125.892365,465.769287 
	C120.830406,470.490173 116.114693,475.702179 114.881699,482.618225 
	C112.471138,496.139435 112.493324,509.808960 115.515717,523.249695 
	C116.801369,528.967041 120.207382,533.331909 126.774368,534.395996 
	C131.755844,535.203125 134.561447,533.447876 134.694885,528.465210 
	C134.846268,522.812500 134.814957,517.154968 134.869598,510.499725 
M471.308868,475.866211 
	C467.673248,476.081604 468.345459,478.920990 468.338715,481.074341 
	C468.285034,498.183777 468.322296,515.293518 468.355927,532.403137 
	C468.358215,533.556763 468.379181,534.762146 468.698303,535.853821 
	C469.738678,539.412659 473.656433,541.296936 476.449280,539.351257 
	C485.829865,532.816040 491.902649,520.955933 488.236908,508.059296 
	C486.426483,501.689758 484.257568,495.441010 484.988098,488.582611 
	C486.025085,478.846832 481.759338,474.794830 471.308868,475.866211 
M178.805695,609.863708 
	C161.445663,603.831299 146.576492,594.161987 134.900589,579.819702 
	C132.212936,576.518250 129.917236,572.499573 124.317787,573.707031 
	C126.538017,578.847900 129.605423,583.197327 132.973587,587.304138 
	C148.066483,605.707031 168.703110,615.128967 190.561340,622.445068 
	C193.824280,623.537170 196.933624,622.118286 199.911026,620.353394 
	C194.688400,613.227783 186.667130,612.598999 178.805695,609.863708 
M231.693985,632.659912 
	C240.154938,628.552124 241.410767,619.376892 234.327850,613.416382 
	C228.297684,608.341797 220.813004,608.481750 214.966537,613.743225 
	C213.246643,615.290955 211.569885,616.926575 209.672150,618.228760 
	C205.357956,621.188904 205.120560,623.185974 209.415512,626.358337 
	C215.757187,631.042358 222.951126,633.216003 231.693985,632.659912 
M186.535583,638.171509 
	C182.782074,643.702332 182.046082,649.161682 186.711609,654.646606 
	C187.547073,655.628784 188.064270,656.961792 188.466782,658.216675 
	C189.553772,661.605713 191.962601,662.462158 195.125168,661.829041 
	C197.408432,661.371887 199.670181,660.780396 201.909485,660.137207 
	C204.595337,659.365845 205.450897,657.909302 204.673004,654.895996 
	C202.842178,647.803955 198.786407,642.447937 193.443771,637.625793 
	C190.856277,635.290405 189.161423,634.809143 186.535583,638.171509 
M415.510895,599.983032 
	C413.504944,602.605957 408.784424,604.337524 410.646179,608.303772 
	C412.051605,611.297974 415.780914,608.817383 418.386292,608.638245 
	C421.754761,608.406677 423.555267,606.556274 421.767944,602.829407 
	C420.693604,600.589233 421.068237,598.331787 422.260132,596.143188 
	C422.867188,595.028503 424.079803,593.897217 422.748810,591.573059 
	C421.364136,595.552490 417.610565,596.454163 415.510895,599.983032 
z"/>
<path fill="#000000" opacity="1.000000" stroke="none" 
	d="
M767.287476,573.103394 
	C746.210876,591.474426 721.827942,590.855286 700.747925,575.452271 
	C698.861145,574.073608 697.266785,572.343323 696.129089,570.263428 
	C693.851013,566.098450 694.502747,561.752441 697.801575,558.923523 
	C701.231445,555.982300 704.971863,556.204834 709.040527,559.592041 
	C723.642578,571.748413 740.010803,572.317993 754.694397,561.180603 
	C760.015137,557.144836 763.636230,556.763611 767.220032,559.862244 
	C770.990234,563.121948 771.079895,567.029175 767.287476,573.103394 
z"/>
<path fill="#000000" opacity="1.000000" stroke="none" 
	d="
M312.311279,585.581116 
	C298.262970,589.016541 286.310516,584.895691 275.200439,577.252380 
	C272.656158,575.502014 270.882874,573.131165 270.456177,569.919189 
	C270.021515,566.647400 270.949585,564.022034 273.785156,562.159363 
	C276.620026,560.297119 279.402527,560.277893 282.134399,562.318420 
	C284.672974,564.214600 287.170074,566.188538 290.144470,567.368713 
	C300.269867,571.386230 309.928772,571.018127 319.072083,564.502747 
	C324.446228,560.673157 328.289856,560.887207 331.349609,564.756042 
	C334.485260,568.721008 333.781952,573.462463 329.195007,577.537476 
	C324.480408,581.726013 318.807007,584.069885 312.311279,585.581116 
z"/>
<path fill="#000000" opacity="1.000000" stroke="none" 
	d="
M812.315918,485.605103 
	C815.737427,488.615448 818.597717,491.539642 819.547241,495.891357 
	C820.420166,499.891541 818.882385,502.794739 815.642517,504.780212 
	C812.352783,506.796234 809.353821,505.895844 806.617554,503.299286 
	C796.283691,493.493103 786.976990,492.553314 774.767761,500.072418 
	C771.560974,502.047363 768.451782,502.223541 765.578857,499.719849 
	C762.279785,496.844818 761.827332,493.184998 763.533875,489.294067 
	C764.933289,486.103577 767.572632,484.055786 770.586548,482.501556 
	C784.975891,475.080933 798.766541,476.489441 812.315918,485.605103 
z"/>
<path fill="#000000" opacity="1.000000" stroke="none" 
	d="
M670.383179,477.893036 
	C678.457092,477.350555 685.771423,478.479370 692.625854,481.999817 
	C695.336365,483.391968 697.688782,485.264832 699.426025,487.763000 
	C702.023376,491.497864 702.037720,495.287170 698.908447,498.723541 
	C695.801758,502.135284 692.308167,501.878876 688.567078,499.576508 
	C678.712891,493.511871 667.667847,493.871155 658.611755,500.421906 
	C653.549988,504.083313 649.917969,504.130646 646.725098,500.576721 
	C643.541809,497.033508 643.852356,491.418976 647.860168,487.502991 
	C653.017761,482.463593 659.439392,479.802002 666.497314,478.598206 
	C667.646057,478.402283 668.786865,478.160126 670.383179,477.893036 
z"/>
<path fill="#000000" opacity="1.000000" stroke="none" 
	d="
M352.900208,510.704224 
	C350.223816,511.432678 348.274506,512.668579 346.407104,514.097412 
	C343.451172,516.359131 340.370239,516.992615 337.385681,514.215210 
	C334.229370,511.277893 333.435181,507.760803 335.384277,503.820435 
	C336.361908,501.844025 337.937927,500.355042 339.718903,499.074402 
	C351.451141,490.637970 367.605194,492.158997 377.473633,502.751709 
	C379.884827,505.339844 381.880524,508.298340 380.790680,512.171143 
	C379.154816,517.984253 373.402191,519.761841 368.768921,515.583923 
	C364.254364,511.513031 359.329468,509.518250 352.900208,510.704224 
z"/>
<path fill="#000000" opacity="1.000000" stroke="none" 
	d="
M264.794922,516.183716 
	C262.269012,516.433350 260.537750,515.562134 258.895538,514.325012 
	C252.218384,509.295105 245.287247,509.953644 238.386765,513.693604 
	C233.142654,516.535828 230.083755,516.494324 227.330444,513.095703 
	C224.576782,509.696716 225.204453,505.557434 229.078506,501.567535 
	C238.892761,491.459808 258.045807,491.137390 268.062531,500.911255 
	C273.804779,506.514282 272.581665,513.015015 264.794922,516.183716 
z"/>
</svg>